<?xml version="1.0" standalone="no"?><!DOCTYPE svg PUBLIC "-//W3C//DTD SVG 1.1//EN" "http://www.w3.org/Graphics/SVG/1.1/DTD/svg11.dtd"><svg t="1572033580244" class="icon" viewBox="0 0 1024 1024" version="1.1" xmlns="http://www.w3.org/2000/svg" p-id="6599" xmlns:xlink="http://www.w3.org/1999/xlink" width="240" height="240"><defs><style type="text/css"></style></defs><path d="M202.24 679.68c-83.2 0-151.04-67.84-151.04-151.04s67.84-151.04 151.04-151.04 151.04 67.84 151.04 151.04-67.84 151.04-151.04 151.04z m0-245.76c-52.224 0-94.72 42.496-94.72 94.72s42.496 94.72 94.72 94.72 94.72-42.496 94.72-94.72-42.496-94.72-94.72-94.72z" p-id="6600" fill="#707070"></path><path d="M713.216 274.688l-367.36 211.968c-15.872 9.216-36.352 3.84-45.568-12.288-9.216-15.872-3.84-36.352 12.288-45.568l367.36-211.968c15.872-9.216 36.352-3.84 45.568 12.288 8.96 16.128 3.584 36.608-12.288 45.568zM549.632 800.256l-252.416-169.984c-15.36-10.24-19.2-30.976-8.96-46.08 10.24-15.36 30.976-19.2 46.08-8.96l252.416 169.984c15.36 10.24 19.2 30.976 8.96 46.08-9.984 15.36-30.72 19.2-46.08 8.96z" p-id="6601" fill="#707070"></path><path d="M815.36 328.96c-75.52 0-136.96-61.44-136.96-136.96s61.44-136.96 136.96-136.96S952.32 116.48 952.32 192s-61.44 136.96-136.96 136.96z m0-217.6C770.816 111.36 734.72 147.456 734.72 192s36.096 80.64 80.64 80.64S896 236.544 896 192s-36.096-80.64-80.64-80.64zM684.8 974.08c-75.52 0-136.96-61.44-136.96-136.96s61.44-136.96 136.96-136.96 136.96 61.44 136.96 136.96-61.44 136.96-136.96 136.96z m0-217.6c-44.544 0-80.64 36.096-80.64 80.64s36.096 80.64 80.64 80.64S765.44 881.664 765.44 837.12s-36.096-80.64-80.64-80.64z" p-id="6602" fill="#707070"></path></svg>