<svg class="icon" style="width: 1em; height: 1em;vertical-align: middle;fill: #777;overflow: hidden;" viewBox="0 0 1024 1024" version="1.1" xmlns="http://www.w3.org/2000/svg" p-id="1053"><path d="M756.7 326.4H265.9c-15.2 0-27.5-12.3-27.5-27.5s12.3-27.5 27.5-27.5h490.8c15.2 0 27.5 12.3 27.5 27.5s-12.3 27.5-27.5 27.5zM756.7 538.7H265.9c-15.2 0-27.5-12.3-27.5-27.5s12.3-27.5 27.5-27.5h490.8c15.2 0 27.5 12.3 27.5 27.5s-12.3 27.5-27.5 27.5zM756.7 751.1H265.9c-15.2 0-27.5-12.3-27.5-27.5s12.3-27.5 27.5-27.5h490.8c15.2 0 27.5 12.3 27.5 27.5s-12.3 27.5-27.5 27.5z" fill="" p-id="1054"></path></svg>